<mxfile host="app.diagrams.net" modified="2023-07-27T03:14:11.393Z" agent="Mozilla/5.0 (Macintosh; Intel Mac OS X 10_15_7) AppleWebKit/537.36 (KHTML, like Gecko) Chrome/114.0.0.0 Safari/537.36" etag="oSihiemFzg7S8LRL3jsi" version="21.6.3" type="github">
  <diagram name="第 1 页" id="ZBLuLNXspFlUpq8aVIjS">
    <mxGraphModel dx="1647" dy="939" grid="1" gridSize="10" guides="1" tooltips="1" connect="1" arrows="1" fold="1" page="1" pageScale="1" pageWidth="827" pageHeight="1169" math="0" shadow="0">
      <root>
        <mxCell id="0" />
        <mxCell id="1" parent="0" />
        <mxCell id="wGvUovHAuAI9Z7U87SOO-4" value="" style="shape=table;html=1;whiteSpace=wrap;startSize=0;container=1;collapsible=0;childLayout=tableLayout;columnLines=0;rowLines=0;rounded=0;shadow=1;glass=0;sketch=0;fontFamily=Courier New;fontSize=24;fillColor=#dae8fc;strokeColor=#6c8ebf;" vertex="1" parent="1">
          <mxGeometry x="320" y="280" width="40" height="40" as="geometry" />
        </mxCell>
        <mxCell id="wGvUovHAuAI9Z7U87SOO-5" value="" style="shape=partialRectangle;html=1;whiteSpace=wrap;collapsible=0;dropTarget=0;pointerEvents=0;fillColor=#dae8fc;top=0;left=0;bottom=0;right=0;points=[[0,0.5],[1,0.5]];portConstraint=eastwest;fontFamily=Courier New;fontSize=24;strokeColor=#6c8ebf;" vertex="1" parent="wGvUovHAuAI9Z7U87SOO-4">
          <mxGeometry width="40" height="40" as="geometry" />
        </mxCell>
        <mxCell id="wGvUovHAuAI9Z7U87SOO-6" value="&lt;font style=&quot;font-size: 24px&quot;&gt;C&lt;/font&gt;" style="shape=partialRectangle;html=1;whiteSpace=wrap;connectable=0;fillColor=#dae8fc;top=0;left=0;bottom=0;right=0;overflow=hidden;fontFamily=Courier New;fontSize=24;strokeColor=#6c8ebf;" vertex="1" parent="wGvUovHAuAI9Z7U87SOO-5">
          <mxGeometry width="40" height="40" as="geometry">
            <mxRectangle width="40" height="40" as="alternateBounds" />
          </mxGeometry>
        </mxCell>
        <mxCell id="wGvUovHAuAI9Z7U87SOO-7" value="" style="endArrow=classic;html=1;shadow=0;fontFamily=Courier New;fontSize=24;strokeColor=#82b366;fillColor=#d5e8d4;" edge="1" parent="1">
          <mxGeometry width="50" height="50" relative="1" as="geometry">
            <mxPoint x="250" y="300" as="sourcePoint" />
            <mxPoint x="310" y="380" as="targetPoint" />
          </mxGeometry>
        </mxCell>
        <mxCell id="wGvUovHAuAI9Z7U87SOO-8" value="" style="endArrow=classic;html=1;shadow=0;fontFamily=Courier New;fontSize=24;strokeColor=#82b366;rounded=1;fillColor=#d5e8d4;" edge="1" parent="1">
          <mxGeometry width="50" height="50" relative="1" as="geometry">
            <mxPoint x="250" y="379.5" as="sourcePoint" />
            <mxPoint x="310" y="379.5" as="targetPoint" />
          </mxGeometry>
        </mxCell>
        <mxCell id="wGvUovHAuAI9Z7U87SOO-9" value="" style="endArrow=classic;html=1;shadow=0;fontFamily=Courier New;fontSize=24;strokeColor=#b85450;fillColor=#f8cecc;" edge="1" parent="1">
          <mxGeometry width="50" height="50" relative="1" as="geometry">
            <mxPoint x="250" y="380" as="sourcePoint" />
            <mxPoint x="310" y="300" as="targetPoint" />
          </mxGeometry>
        </mxCell>
        <mxCell id="wGvUovHAuAI9Z7U87SOO-10" value="" style="endArrow=classic;html=1;shadow=0;fontFamily=Courier New;fontSize=24;strokeColor=#b85450;fillColor=#f8cecc;" edge="1" parent="1">
          <mxGeometry width="50" height="50" relative="1" as="geometry">
            <mxPoint x="250" y="300" as="sourcePoint" />
            <mxPoint x="310" y="300" as="targetPoint" />
          </mxGeometry>
        </mxCell>
        <mxCell id="wGvUovHAuAI9Z7U87SOO-11" value="&lt;font style=&quot;font-size: 20px;&quot;&gt;Cross-lane&lt;/font&gt;" style="text;html=1;strokeColor=#b85450;fillColor=#f8cecc;align=center;verticalAlign=middle;whiteSpace=wrap;rounded=0;shadow=1;glass=0;sketch=0;fontFamily=Courier New;fontSize=24;startSize=26;" vertex="1" parent="1">
          <mxGeometry x="500" y="290" width="130" height="20" as="geometry" />
        </mxCell>
        <mxCell id="wGvUovHAuAI9Z7U87SOO-12" value="&lt;font style=&quot;font-size: 20px;&quot;&gt;In-lane&lt;/font&gt;" style="text;html=1;strokeColor=#82b366;fillColor=#d5e8d4;align=center;verticalAlign=middle;whiteSpace=wrap;rounded=0;shadow=1;glass=0;sketch=0;fontFamily=Courier New;fontSize=24;startSize=26;" vertex="1" parent="1">
          <mxGeometry x="500" y="360" width="130" height="20" as="geometry" />
        </mxCell>
        <mxCell id="wGvUovHAuAI9Z7U87SOO-13" value="&lt;font style=&quot;font-size: 20px;&quot;&gt;lane1&lt;/font&gt;" style="text;html=1;strokeColor=#d79b00;fillColor=#ffe6cc;align=center;verticalAlign=middle;whiteSpace=wrap;rounded=0;shadow=1;glass=0;sketch=0;fontFamily=Courier New;fontSize=24;startSize=26;" vertex="1" parent="1">
          <mxGeometry x="120" y="170" width="70" height="20" as="geometry" />
        </mxCell>
        <mxCell id="wGvUovHAuAI9Z7U87SOO-14" value="&lt;font style=&quot;font-size: 20px;&quot;&gt;lane2&lt;/font&gt;" style="text;html=1;strokeColor=#6c8ebf;fillColor=#dae8fc;align=center;verticalAlign=middle;whiteSpace=wrap;rounded=0;shadow=1;glass=0;sketch=0;fontFamily=Courier New;fontSize=24;startSize=26;" vertex="1" parent="1">
          <mxGeometry x="370" y="170" width="70" height="20" as="geometry" />
        </mxCell>
        <mxCell id="wGvUovHAuAI9Z7U87SOO-15" value="" style="shape=table;html=1;whiteSpace=wrap;startSize=0;container=1;collapsible=0;childLayout=tableLayout;columnLines=0;rowLines=0;rounded=0;shadow=1;glass=0;sketch=0;fontFamily=Courier New;fontSize=24;fillColor=#dae8fc;strokeColor=#6c8ebf;" vertex="1" parent="1">
          <mxGeometry x="360" y="280" width="40" height="40" as="geometry" />
        </mxCell>
        <mxCell id="wGvUovHAuAI9Z7U87SOO-16" value="" style="shape=partialRectangle;html=1;whiteSpace=wrap;collapsible=0;dropTarget=0;pointerEvents=0;fillColor=#dae8fc;top=0;left=0;bottom=0;right=0;points=[[0,0.5],[1,0.5]];portConstraint=eastwest;fontFamily=Courier New;fontSize=24;strokeColor=#6c8ebf;" vertex="1" parent="wGvUovHAuAI9Z7U87SOO-15">
          <mxGeometry width="40" height="40" as="geometry" />
        </mxCell>
        <mxCell id="wGvUovHAuAI9Z7U87SOO-17" value="&lt;font style=&quot;font-size: 24px&quot;&gt;D&lt;/font&gt;" style="shape=partialRectangle;html=1;whiteSpace=wrap;connectable=0;fillColor=#dae8fc;top=0;left=0;bottom=0;right=0;overflow=hidden;fontFamily=Courier New;fontSize=24;strokeColor=#6c8ebf;" vertex="1" parent="wGvUovHAuAI9Z7U87SOO-16">
          <mxGeometry width="40" height="40" as="geometry">
            <mxRectangle width="40" height="40" as="alternateBounds" />
          </mxGeometry>
        </mxCell>
        <mxCell id="wGvUovHAuAI9Z7U87SOO-18" value="" style="shape=table;html=1;whiteSpace=wrap;startSize=0;container=1;collapsible=0;childLayout=tableLayout;columnLines=0;rowLines=0;rounded=0;shadow=1;glass=0;sketch=0;fontFamily=Courier New;fontSize=24;fillColor=#ffe6cc;strokeColor=#d79b00;" vertex="1" parent="1">
          <mxGeometry x="400" y="280" width="40" height="40" as="geometry" />
        </mxCell>
        <mxCell id="wGvUovHAuAI9Z7U87SOO-19" value="" style="shape=partialRectangle;html=1;whiteSpace=wrap;collapsible=0;dropTarget=0;pointerEvents=0;fillColor=#ffe6cc;top=0;left=0;bottom=0;right=0;points=[[0,0.5],[1,0.5]];portConstraint=eastwest;fontFamily=Courier New;fontSize=24;strokeColor=#d79b00;" vertex="1" parent="wGvUovHAuAI9Z7U87SOO-18">
          <mxGeometry width="40" height="40" as="geometry" />
        </mxCell>
        <mxCell id="wGvUovHAuAI9Z7U87SOO-20" value="&lt;font style=&quot;font-size: 24px&quot;&gt;E&lt;/font&gt;" style="shape=partialRectangle;html=1;whiteSpace=wrap;connectable=0;fillColor=#ffe6cc;top=0;left=0;bottom=0;right=0;overflow=hidden;fontFamily=Courier New;fontSize=24;strokeColor=#d79b00;" vertex="1" parent="wGvUovHAuAI9Z7U87SOO-19">
          <mxGeometry width="40" height="40" as="geometry">
            <mxRectangle width="40" height="40" as="alternateBounds" />
          </mxGeometry>
        </mxCell>
        <mxCell id="wGvUovHAuAI9Z7U87SOO-21" value="" style="shape=table;html=1;whiteSpace=wrap;startSize=0;container=1;collapsible=0;childLayout=tableLayout;columnLines=0;rowLines=0;rounded=0;shadow=1;glass=0;sketch=0;fontFamily=Courier New;fontSize=24;fillColor=#ffe6cc;strokeColor=#d79b00;" vertex="1" parent="1">
          <mxGeometry x="440" y="280" width="40" height="40" as="geometry" />
        </mxCell>
        <mxCell id="wGvUovHAuAI9Z7U87SOO-22" value="" style="shape=partialRectangle;html=1;whiteSpace=wrap;collapsible=0;dropTarget=0;pointerEvents=0;fillColor=#ffe6cc;top=0;left=0;bottom=0;right=0;points=[[0,0.5],[1,0.5]];portConstraint=eastwest;fontFamily=Courier New;fontSize=24;strokeColor=#d79b00;" vertex="1" parent="wGvUovHAuAI9Z7U87SOO-21">
          <mxGeometry width="40" height="40" as="geometry" />
        </mxCell>
        <mxCell id="wGvUovHAuAI9Z7U87SOO-23" value="&lt;font style=&quot;font-size: 24px&quot;&gt;F&lt;/font&gt;" style="shape=partialRectangle;html=1;whiteSpace=wrap;connectable=0;fillColor=#ffe6cc;top=0;left=0;bottom=0;right=0;overflow=hidden;fontFamily=Courier New;fontSize=24;strokeColor=#d79b00;" vertex="1" parent="wGvUovHAuAI9Z7U87SOO-22">
          <mxGeometry width="40" height="40" as="geometry">
            <mxRectangle width="40" height="40" as="alternateBounds" />
          </mxGeometry>
        </mxCell>
        <mxCell id="wGvUovHAuAI9Z7U87SOO-24" value="" style="endArrow=none;dashed=1;html=1;fontFamily=Courier New;fontSize=24;strokeColor=#d79b00;entryX=-0.015;entryY=1.06;entryDx=0;entryDy=0;entryPerimeter=0;exitX=0.01;exitY=0.06;exitDx=0;exitDy=0;exitPerimeter=0;fillColor=#ffe6cc;" edge="1" parent="wGvUovHAuAI9Z7U87SOO-21" source="wGvUovHAuAI9Z7U87SOO-22" target="wGvUovHAuAI9Z7U87SOO-22">
          <mxGeometry width="50" height="50" relative="1" as="geometry">
            <mxPoint x="9" y="90" as="sourcePoint" />
            <mxPoint x="9" y="130" as="targetPoint" />
          </mxGeometry>
        </mxCell>
        <mxCell id="wGvUovHAuAI9Z7U87SOO-26" value="" style="endArrow=none;html=1;shadow=0;fontFamily=Courier New;fontSize=24;fontColor=#B85450;startSize=26;strokeColor=#6c8ebf;rounded=0;fillColor=#dae8fc;" edge="1" parent="1">
          <mxGeometry width="50" height="50" relative="1" as="geometry">
            <mxPoint x="360" y="280" as="sourcePoint" />
            <mxPoint x="360" y="320" as="targetPoint" />
            <Array as="points">
              <mxPoint x="320" y="280" />
              <mxPoint x="320" y="320" />
            </Array>
          </mxGeometry>
        </mxCell>
        <mxCell id="wGvUovHAuAI9Z7U87SOO-27" value="" style="endArrow=none;html=1;shadow=0;fontFamily=Courier New;fontSize=24;fontColor=#B85450;startSize=26;strokeColor=#d79b00;fillColor=#ffe6cc;rounded=0;" edge="1" parent="1">
          <mxGeometry width="50" height="50" relative="1" as="geometry">
            <mxPoint x="440" y="280" as="sourcePoint" />
            <mxPoint x="440" y="320" as="targetPoint" />
            <Array as="points">
              <mxPoint x="480" y="280" />
              <mxPoint x="480" y="320" />
            </Array>
          </mxGeometry>
        </mxCell>
        <mxCell id="wGvUovHAuAI9Z7U87SOO-28" value="" style="endArrow=none;html=1;shadow=0;fontFamily=Courier New;fontSize=24;fontColor=#B85450;startSize=26;strokeColor=#d79b00;fillColor=#ffe6cc;" edge="1" parent="1">
          <mxGeometry width="50" height="50" relative="1" as="geometry">
            <mxPoint x="400" y="280" as="sourcePoint" />
            <mxPoint x="440" y="280" as="targetPoint" />
          </mxGeometry>
        </mxCell>
        <mxCell id="wGvUovHAuAI9Z7U87SOO-29" value="" style="endArrow=none;html=1;shadow=0;fontFamily=Courier New;fontSize=24;fontColor=#B85450;startSize=26;strokeColor=#6c8ebf;fillColor=#dae8fc;" edge="1" parent="1">
          <mxGeometry width="50" height="50" relative="1" as="geometry">
            <mxPoint x="360" y="320" as="sourcePoint" />
            <mxPoint x="400" y="320" as="targetPoint" />
          </mxGeometry>
        </mxCell>
        <mxCell id="wGvUovHAuAI9Z7U87SOO-30" value="" style="endArrow=none;html=1;shadow=0;fontFamily=Courier New;fontSize=24;fontColor=#B85450;startSize=26;strokeColor=#6c8ebf;fillColor=#dae8fc;" edge="1" parent="1">
          <mxGeometry width="50" height="50" relative="1" as="geometry">
            <mxPoint x="360" y="280" as="sourcePoint" />
            <mxPoint x="400" y="280" as="targetPoint" />
          </mxGeometry>
        </mxCell>
        <mxCell id="wGvUovHAuAI9Z7U87SOO-31" value="" style="endArrow=none;html=1;shadow=0;fontFamily=Courier New;fontSize=24;fontColor=#B85450;startSize=26;strokeColor=#d79b00;fillColor=#ffe6cc;entryX=-0.04;entryY=1.01;entryDx=0;entryDy=0;entryPerimeter=0;" edge="1" parent="1" target="wGvUovHAuAI9Z7U87SOO-22">
          <mxGeometry width="50" height="50" relative="1" as="geometry">
            <mxPoint x="400" y="320" as="sourcePoint" />
            <mxPoint x="450" y="290" as="targetPoint" />
          </mxGeometry>
        </mxCell>
        <mxCell id="wGvUovHAuAI9Z7U87SOO-32" value="" style="endArrow=none;dashed=1;html=1;shadow=0;fontFamily=Courier New;fontSize=24;fontColor=#B85450;startSize=26;strokeColor=#6c8ebf;fillColor=#dae8fc;" edge="1" parent="1">
          <mxGeometry width="50" height="50" relative="1" as="geometry">
            <mxPoint x="360" y="280" as="sourcePoint" />
            <mxPoint x="360" y="320" as="targetPoint" />
          </mxGeometry>
        </mxCell>
        <mxCell id="wGvUovHAuAI9Z7U87SOO-49" value="&lt;font color=&quot;#000000&quot;&gt;A&lt;/font&gt;" style="text;align=center;verticalAlign=top;spacingLeft=4;spacingRight=4;overflow=hidden;rotatable=0;points=[[0,0.5],[1,0.5]];portConstraint=eastwest;rounded=0;shadow=1;glass=0;sketch=0;fontFamily=Courier New;fontSize=24;startSize=26;html=1;fillColor=#ffe6cc;" vertex="1" parent="1">
          <mxGeometry x="200" y="160" width="40" height="40" as="geometry" />
        </mxCell>
        <mxCell id="wGvUovHAuAI9Z7U87SOO-50" value="&lt;font color=&quot;#000000&quot;&gt;B&lt;/font&gt;" style="text;align=center;verticalAlign=top;spacingLeft=4;spacingRight=4;overflow=hidden;rotatable=0;points=[[0,0.5],[1,0.5]];portConstraint=eastwest;rounded=0;shadow=1;glass=0;sketch=0;fontFamily=Courier New;fontSize=24;startSize=26;html=1;fillColor=#ffe6cc;" vertex="1" parent="1">
          <mxGeometry x="240" y="160" width="40" height="40" as="geometry" />
        </mxCell>
        <mxCell id="wGvUovHAuAI9Z7U87SOO-51" value="&lt;font color=&quot;#000000&quot;&gt;C&lt;/font&gt;" style="text;align=center;verticalAlign=top;spacingLeft=4;spacingRight=4;overflow=hidden;rotatable=0;points=[[0,0.5],[1,0.5]];portConstraint=eastwest;rounded=0;shadow=1;glass=0;sketch=0;fontFamily=Courier New;fontSize=24;startSize=26;html=1;fillColor=#dae8fc;" vertex="1" parent="1">
          <mxGeometry x="280" y="160" width="40" height="40" as="geometry" />
        </mxCell>
        <mxCell id="wGvUovHAuAI9Z7U87SOO-52" value="&lt;font color=&quot;#000000&quot;&gt;D&lt;/font&gt;" style="text;align=center;verticalAlign=top;spacingLeft=4;spacingRight=4;overflow=hidden;rotatable=0;points=[[0,0.5],[1,0.5]];portConstraint=eastwest;rounded=0;shadow=1;glass=0;sketch=0;fontFamily=Courier New;fontSize=24;startSize=26;html=1;fillColor=#dae8fc;" vertex="1" parent="1">
          <mxGeometry x="320" y="160" width="40" height="40" as="geometry" />
        </mxCell>
        <mxCell id="wGvUovHAuAI9Z7U87SOO-53" value="" style="endArrow=none;html=1;shadow=0;dashed=1;fontFamily=Courier New;fontSize=24;fontColor=#B85450;startSize=26;strokeColor=#000000;" edge="1" parent="1">
          <mxGeometry width="50" height="50" relative="1" as="geometry">
            <mxPoint x="279.5" y="210" as="sourcePoint" />
            <mxPoint x="279.5" y="150" as="targetPoint" />
          </mxGeometry>
        </mxCell>
        <mxCell id="wGvUovHAuAI9Z7U87SOO-54" value="" style="endArrow=none;html=1;shadow=0;dashed=1;fontFamily=Courier New;fontSize=24;fontColor=#B85450;startSize=26;strokeColor=#6c8ebf;fillColor=#dae8fc;" edge="1" parent="1">
          <mxGeometry width="50" height="50" relative="1" as="geometry">
            <mxPoint x="319" y="200" as="sourcePoint" />
            <mxPoint x="319" y="160" as="targetPoint" />
          </mxGeometry>
        </mxCell>
        <mxCell id="wGvUovHAuAI9Z7U87SOO-55" value="" style="endArrow=none;html=1;shadow=0;dashed=1;fontFamily=Courier New;fontSize=24;fontColor=#B85450;startSize=26;strokeColor=#d79b00;fillColor=#ffe6cc;" edge="1" parent="1">
          <mxGeometry width="50" height="50" relative="1" as="geometry">
            <mxPoint x="240" y="200" as="sourcePoint" />
            <mxPoint x="240" y="160" as="targetPoint" />
          </mxGeometry>
        </mxCell>
        <mxCell id="wGvUovHAuAI9Z7U87SOO-56" value="" style="endArrow=none;html=1;shadow=0;fontFamily=Courier New;fontSize=24;fontColor=#B85450;startSize=26;strokeColor=#6c8ebf;rounded=0;fillColor=#dae8fc;" edge="1" parent="1">
          <mxGeometry width="50" height="50" relative="1" as="geometry">
            <mxPoint x="280" y="160" as="sourcePoint" />
            <mxPoint x="280" y="200" as="targetPoint" />
            <Array as="points">
              <mxPoint x="360" y="160" />
              <mxPoint x="360" y="200" />
            </Array>
          </mxGeometry>
        </mxCell>
        <mxCell id="wGvUovHAuAI9Z7U87SOO-57" value="" style="endArrow=none;html=1;shadow=0;fontFamily=Courier New;fontSize=24;fontColor=#B85450;startSize=26;strokeColor=#d79b00;rounded=0;fillColor=#ffe6cc;" edge="1" parent="1">
          <mxGeometry width="50" height="50" relative="1" as="geometry">
            <mxPoint x="280" y="160" as="sourcePoint" />
            <mxPoint x="280" y="200" as="targetPoint" />
            <Array as="points">
              <mxPoint x="200" y="160" />
              <mxPoint x="200" y="200" />
            </Array>
          </mxGeometry>
        </mxCell>
        <mxCell id="wGvUovHAuAI9Z7U87SOO-84" value="&lt;font color=&quot;#000000&quot;&gt;A&lt;/font&gt;" style="text;align=center;verticalAlign=top;spacingLeft=4;spacingRight=4;overflow=hidden;rotatable=0;points=[[0,0.5],[1,0.5]];portConstraint=eastwest;rounded=0;shadow=1;glass=0;sketch=0;fontFamily=Courier New;fontSize=24;startSize=26;html=1;fillColor=#ffe6cc;" vertex="1" parent="1">
          <mxGeometry x="80" y="280" width="40" height="40" as="geometry" />
        </mxCell>
        <mxCell id="wGvUovHAuAI9Z7U87SOO-85" value="&lt;font color=&quot;#000000&quot;&gt;B&lt;/font&gt;" style="text;align=center;verticalAlign=top;spacingLeft=4;spacingRight=4;overflow=hidden;rotatable=0;points=[[0,0.5],[1,0.5]];portConstraint=eastwest;rounded=0;shadow=1;glass=0;sketch=0;fontFamily=Courier New;fontSize=24;startSize=26;html=1;fillColor=#ffe6cc;" vertex="1" parent="1">
          <mxGeometry x="120" y="280" width="40" height="40" as="geometry" />
        </mxCell>
        <mxCell id="wGvUovHAuAI9Z7U87SOO-86" value="&lt;font color=&quot;#000000&quot;&gt;C&lt;/font&gt;" style="text;align=center;verticalAlign=top;spacingLeft=4;spacingRight=4;overflow=hidden;rotatable=0;points=[[0,0.5],[1,0.5]];portConstraint=eastwest;rounded=0;shadow=1;glass=0;sketch=0;fontFamily=Courier New;fontSize=24;startSize=26;html=1;fillColor=#dae8fc;" vertex="1" parent="1">
          <mxGeometry x="160" y="280" width="40" height="40" as="geometry" />
        </mxCell>
        <mxCell id="wGvUovHAuAI9Z7U87SOO-87" value="&lt;font color=&quot;#000000&quot;&gt;D&lt;/font&gt;" style="text;align=center;verticalAlign=top;spacingLeft=4;spacingRight=4;overflow=hidden;rotatable=0;points=[[0,0.5],[1,0.5]];portConstraint=eastwest;rounded=0;shadow=1;glass=0;sketch=0;fontFamily=Courier New;fontSize=24;startSize=26;html=1;fillColor=#dae8fc;" vertex="1" parent="1">
          <mxGeometry x="200" y="280" width="40" height="40" as="geometry" />
        </mxCell>
        <mxCell id="wGvUovHAuAI9Z7U87SOO-88" value="" style="endArrow=none;html=1;shadow=0;dashed=1;fontFamily=Courier New;fontSize=24;fontColor=#B85450;startSize=26;strokeColor=#6c8ebf;fillColor=#dae8fc;" edge="1" parent="1">
          <mxGeometry width="50" height="50" relative="1" as="geometry">
            <mxPoint x="199" y="320" as="sourcePoint" />
            <mxPoint x="199" y="280" as="targetPoint" />
          </mxGeometry>
        </mxCell>
        <mxCell id="wGvUovHAuAI9Z7U87SOO-89" value="" style="endArrow=none;html=1;shadow=0;dashed=1;fontFamily=Courier New;fontSize=24;fontColor=#B85450;startSize=26;strokeColor=#d79b00;fillColor=#ffe6cc;" edge="1" parent="1">
          <mxGeometry width="50" height="50" relative="1" as="geometry">
            <mxPoint x="120" y="320" as="sourcePoint" />
            <mxPoint x="120" y="280" as="targetPoint" />
          </mxGeometry>
        </mxCell>
        <mxCell id="wGvUovHAuAI9Z7U87SOO-90" value="" style="endArrow=none;html=1;shadow=0;fontFamily=Courier New;fontSize=24;fontColor=#B85450;startSize=26;strokeColor=#6c8ebf;rounded=0;fillColor=#dae8fc;" edge="1" parent="1">
          <mxGeometry width="50" height="50" relative="1" as="geometry">
            <mxPoint x="160" y="280" as="sourcePoint" />
            <mxPoint x="160" y="320" as="targetPoint" />
            <Array as="points">
              <mxPoint x="240" y="280" />
              <mxPoint x="240" y="320" />
            </Array>
          </mxGeometry>
        </mxCell>
        <mxCell id="wGvUovHAuAI9Z7U87SOO-91" value="" style="endArrow=none;html=1;shadow=0;fontFamily=Courier New;fontSize=24;fontColor=#B85450;startSize=26;strokeColor=#d79b00;rounded=0;fillColor=#ffe6cc;" edge="1" parent="1">
          <mxGeometry width="50" height="50" relative="1" as="geometry">
            <mxPoint x="160" y="280" as="sourcePoint" />
            <mxPoint x="160" y="320" as="targetPoint" />
            <Array as="points">
              <mxPoint x="80" y="280" />
              <mxPoint x="80" y="320" />
            </Array>
          </mxGeometry>
        </mxCell>
        <mxCell id="wGvUovHAuAI9Z7U87SOO-92" value="" style="endArrow=none;html=1;shadow=0;dashed=1;fontFamily=Courier New;fontSize=24;fontColor=#B85450;startSize=26;strokeColor=#000000;" edge="1" parent="1">
          <mxGeometry width="50" height="50" relative="1" as="geometry">
            <mxPoint x="159" y="330" as="sourcePoint" />
            <mxPoint x="159" y="270" as="targetPoint" />
          </mxGeometry>
        </mxCell>
        <mxCell id="wGvUovHAuAI9Z7U87SOO-93" value="&lt;font color=&quot;#000000&quot;&gt;E&lt;/font&gt;" style="text;align=center;verticalAlign=top;spacingLeft=4;spacingRight=4;overflow=hidden;rotatable=0;points=[[0,0.5],[1,0.5]];portConstraint=eastwest;rounded=0;shadow=1;glass=0;sketch=0;fontFamily=Courier New;fontSize=24;startSize=26;html=1;fillColor=#ffe6cc;" vertex="1" parent="1">
          <mxGeometry x="80" y="350" width="40" height="40" as="geometry" />
        </mxCell>
        <mxCell id="wGvUovHAuAI9Z7U87SOO-94" value="&lt;font color=&quot;#000000&quot;&gt;F&lt;/font&gt;" style="text;align=center;verticalAlign=top;spacingLeft=4;spacingRight=4;overflow=hidden;rotatable=0;points=[[0,0.5],[1,0.5]];portConstraint=eastwest;rounded=0;shadow=1;glass=0;sketch=0;fontFamily=Courier New;fontSize=24;startSize=26;html=1;fillColor=#ffe6cc;" vertex="1" parent="1">
          <mxGeometry x="120" y="350" width="40" height="40" as="geometry" />
        </mxCell>
        <mxCell id="wGvUovHAuAI9Z7U87SOO-95" value="&lt;font color=&quot;#000000&quot;&gt;G&lt;/font&gt;" style="text;align=center;verticalAlign=top;spacingLeft=4;spacingRight=4;overflow=hidden;rotatable=0;points=[[0,0.5],[1,0.5]];portConstraint=eastwest;rounded=0;shadow=1;glass=0;sketch=0;fontFamily=Courier New;fontSize=24;startSize=26;html=1;fillColor=#dae8fc;" vertex="1" parent="1">
          <mxGeometry x="160" y="350" width="40" height="40" as="geometry" />
        </mxCell>
        <mxCell id="wGvUovHAuAI9Z7U87SOO-96" value="&lt;font color=&quot;#000000&quot;&gt;H&lt;/font&gt;" style="text;align=center;verticalAlign=top;spacingLeft=4;spacingRight=4;overflow=hidden;rotatable=0;points=[[0,0.5],[1,0.5]];portConstraint=eastwest;rounded=0;shadow=1;glass=0;sketch=0;fontFamily=Courier New;fontSize=24;startSize=26;html=1;fillColor=#dae8fc;" vertex="1" parent="1">
          <mxGeometry x="200" y="350" width="40" height="40" as="geometry" />
        </mxCell>
        <mxCell id="wGvUovHAuAI9Z7U87SOO-97" value="" style="endArrow=none;html=1;shadow=0;dashed=1;fontFamily=Courier New;fontSize=24;fontColor=#B85450;startSize=26;strokeColor=#6c8ebf;fillColor=#dae8fc;" edge="1" parent="1">
          <mxGeometry width="50" height="50" relative="1" as="geometry">
            <mxPoint x="199" y="390" as="sourcePoint" />
            <mxPoint x="199" y="350" as="targetPoint" />
          </mxGeometry>
        </mxCell>
        <mxCell id="wGvUovHAuAI9Z7U87SOO-98" value="" style="endArrow=none;html=1;shadow=0;dashed=1;fontFamily=Courier New;fontSize=24;fontColor=#B85450;startSize=26;strokeColor=#d79b00;fillColor=#ffe6cc;" edge="1" parent="1">
          <mxGeometry width="50" height="50" relative="1" as="geometry">
            <mxPoint x="120" y="390" as="sourcePoint" />
            <mxPoint x="120" y="350" as="targetPoint" />
          </mxGeometry>
        </mxCell>
        <mxCell id="wGvUovHAuAI9Z7U87SOO-99" value="" style="endArrow=none;html=1;shadow=0;fontFamily=Courier New;fontSize=24;fontColor=#B85450;startSize=26;strokeColor=#6c8ebf;rounded=0;fillColor=#dae8fc;" edge="1" parent="1">
          <mxGeometry width="50" height="50" relative="1" as="geometry">
            <mxPoint x="160" y="350" as="sourcePoint" />
            <mxPoint x="160" y="390" as="targetPoint" />
            <Array as="points">
              <mxPoint x="240" y="350" />
              <mxPoint x="240" y="390" />
            </Array>
          </mxGeometry>
        </mxCell>
        <mxCell id="wGvUovHAuAI9Z7U87SOO-100" value="" style="endArrow=none;html=1;shadow=0;fontFamily=Courier New;fontSize=24;fontColor=#B85450;startSize=26;strokeColor=#d79b00;rounded=0;fillColor=#ffe6cc;" edge="1" parent="1">
          <mxGeometry width="50" height="50" relative="1" as="geometry">
            <mxPoint x="160" y="350" as="sourcePoint" />
            <mxPoint x="160" y="390" as="targetPoint" />
            <Array as="points">
              <mxPoint x="80" y="350" />
              <mxPoint x="80" y="390" />
            </Array>
          </mxGeometry>
        </mxCell>
        <mxCell id="wGvUovHAuAI9Z7U87SOO-101" value="" style="endArrow=none;html=1;shadow=0;dashed=1;fontFamily=Courier New;fontSize=24;fontColor=#B85450;startSize=26;strokeColor=#000000;" edge="1" parent="1">
          <mxGeometry width="50" height="50" relative="1" as="geometry">
            <mxPoint x="159" y="400" as="sourcePoint" />
            <mxPoint x="159" y="340" as="targetPoint" />
          </mxGeometry>
        </mxCell>
        <mxCell id="wGvUovHAuAI9Z7U87SOO-111" value="&lt;font color=&quot;#000000&quot;&gt;A&lt;/font&gt;" style="text;align=center;verticalAlign=top;spacingLeft=4;spacingRight=4;overflow=hidden;rotatable=0;points=[[0,0.5],[1,0.5]];portConstraint=eastwest;rounded=0;shadow=1;glass=0;sketch=0;fontFamily=Courier New;fontSize=24;startSize=26;html=1;fillColor=#ffe6cc;" vertex="1" parent="1">
          <mxGeometry x="320" y="350" width="40" height="40" as="geometry" />
        </mxCell>
        <mxCell id="wGvUovHAuAI9Z7U87SOO-112" value="&lt;font color=&quot;#000000&quot;&gt;E&lt;/font&gt;" style="text;align=center;verticalAlign=top;spacingLeft=4;spacingRight=4;overflow=hidden;rotatable=0;points=[[0,0.5],[1,0.5]];portConstraint=eastwest;rounded=0;shadow=1;glass=0;sketch=0;fontFamily=Courier New;fontSize=24;startSize=26;html=1;fillColor=#ffe6cc;" vertex="1" parent="1">
          <mxGeometry x="360" y="350" width="40" height="40" as="geometry" />
        </mxCell>
        <mxCell id="wGvUovHAuAI9Z7U87SOO-113" value="&lt;font color=&quot;#000000&quot;&gt;C&lt;/font&gt;" style="text;align=center;verticalAlign=top;spacingLeft=4;spacingRight=4;overflow=hidden;rotatable=0;points=[[0,0.5],[1,0.5]];portConstraint=eastwest;rounded=0;shadow=1;glass=0;sketch=0;fontFamily=Courier New;fontSize=24;startSize=26;html=1;fillColor=#dae8fc;" vertex="1" parent="1">
          <mxGeometry x="400" y="350" width="40" height="40" as="geometry" />
        </mxCell>
        <mxCell id="wGvUovHAuAI9Z7U87SOO-114" value="&lt;font color=&quot;#000000&quot;&gt;G&lt;/font&gt;" style="text;align=center;verticalAlign=top;spacingLeft=4;spacingRight=4;overflow=hidden;rotatable=0;points=[[0,0.5],[1,0.5]];portConstraint=eastwest;rounded=0;shadow=1;glass=0;sketch=0;fontFamily=Courier New;fontSize=24;startSize=26;html=1;fillColor=#dae8fc;" vertex="1" parent="1">
          <mxGeometry x="440" y="350" width="40" height="40" as="geometry" />
        </mxCell>
        <mxCell id="wGvUovHAuAI9Z7U87SOO-115" value="" style="endArrow=none;html=1;shadow=0;dashed=1;fontFamily=Courier New;fontSize=24;fontColor=#B85450;startSize=26;strokeColor=#6c8ebf;fillColor=#dae8fc;" edge="1" parent="1">
          <mxGeometry width="50" height="50" relative="1" as="geometry">
            <mxPoint x="439" y="390" as="sourcePoint" />
            <mxPoint x="439" y="350" as="targetPoint" />
          </mxGeometry>
        </mxCell>
        <mxCell id="wGvUovHAuAI9Z7U87SOO-116" value="" style="endArrow=none;html=1;shadow=0;dashed=1;fontFamily=Courier New;fontSize=24;fontColor=#B85450;startSize=26;strokeColor=#d79b00;fillColor=#ffe6cc;" edge="1" parent="1">
          <mxGeometry width="50" height="50" relative="1" as="geometry">
            <mxPoint x="360" y="390" as="sourcePoint" />
            <mxPoint x="360" y="350" as="targetPoint" />
          </mxGeometry>
        </mxCell>
        <mxCell id="wGvUovHAuAI9Z7U87SOO-117" value="" style="endArrow=none;html=1;shadow=0;fontFamily=Courier New;fontSize=24;fontColor=#B85450;startSize=26;strokeColor=#6c8ebf;rounded=0;fillColor=#dae8fc;" edge="1" parent="1">
          <mxGeometry width="50" height="50" relative="1" as="geometry">
            <mxPoint x="400" y="350" as="sourcePoint" />
            <mxPoint x="400" y="390" as="targetPoint" />
            <Array as="points">
              <mxPoint x="480" y="350" />
              <mxPoint x="480" y="390" />
            </Array>
          </mxGeometry>
        </mxCell>
        <mxCell id="wGvUovHAuAI9Z7U87SOO-118" value="" style="endArrow=none;html=1;shadow=0;fontFamily=Courier New;fontSize=24;fontColor=#B85450;startSize=26;strokeColor=#d79b00;rounded=0;fillColor=#ffe6cc;" edge="1" parent="1">
          <mxGeometry width="50" height="50" relative="1" as="geometry">
            <mxPoint x="400" y="350" as="sourcePoint" />
            <mxPoint x="400" y="390" as="targetPoint" />
            <Array as="points">
              <mxPoint x="320" y="350" />
              <mxPoint x="320" y="390" />
            </Array>
          </mxGeometry>
        </mxCell>
        <mxCell id="wGvUovHAuAI9Z7U87SOO-119" value="" style="endArrow=none;html=1;shadow=0;dashed=1;fontFamily=Courier New;fontSize=24;fontColor=#B85450;startSize=26;strokeColor=#000000;" edge="1" parent="1">
          <mxGeometry width="50" height="50" relative="1" as="geometry">
            <mxPoint x="399" y="400" as="sourcePoint" />
            <mxPoint x="399" y="340" as="targetPoint" />
          </mxGeometry>
        </mxCell>
        <mxCell id="wGvUovHAuAI9Z7U87SOO-120" value="&lt;font style=&quot;font-size: 23px;&quot; color=&quot;#000000&quot;&gt;&lt;b style=&quot;font-size: 23px;&quot;&gt;Vector Architecture&lt;/b&gt;&lt;/font&gt;" style="text;html=1;strokeColor=none;fillColor=none;align=center;verticalAlign=middle;whiteSpace=wrap;rounded=0;shadow=1;glass=0;sketch=0;fontFamily=Courier New;fontSize=23;fontColor=#9673A6;startSize=26;" vertex="1" parent="1">
          <mxGeometry x="80" y="120" width="280" height="20" as="geometry" />
        </mxCell>
        <mxCell id="wGvUovHAuAI9Z7U87SOO-121" value="&lt;font style=&quot;font-size: 23px;&quot; color=&quot;#000000&quot;&gt;&lt;b style=&quot;font-size: 23px;&quot;&gt;Shuffle Instructions&lt;/b&gt;&lt;/font&gt;" style="text;html=1;strokeColor=none;fillColor=none;align=center;verticalAlign=middle;whiteSpace=wrap;rounded=0;shadow=1;glass=0;sketch=0;fontFamily=Courier New;fontSize=23;fontColor=#9673A6;startSize=26;" vertex="1" parent="1">
          <mxGeometry x="80" y="240" width="290" height="20" as="geometry" />
        </mxCell>
        <mxCell id="wGvUovHAuAI9Z7U87SOO-122" value="" style="endArrow=none;html=1;shadow=0;dashed=1;fontFamily=Courier New;fontSize=24;fontColor=#B85450;startSize=26;strokeColor=#000000;fillColor=#dae8fc;" edge="1" parent="1">
          <mxGeometry width="50" height="50" relative="1" as="geometry">
            <mxPoint x="399.5" y="330" as="sourcePoint" />
            <mxPoint x="399.5" y="270" as="targetPoint" />
          </mxGeometry>
        </mxCell>
      </root>
    </mxGraphModel>
  </diagram>
</mxfile>
